<svg id="Ebene_1" data-name="Ebene 1" xmlns="http://www.w3.org/2000/svg" viewBox="0 0 2961.36 327.84"><defs><style>.cls-1{fill:#fff;}</style></defs><path class="cls-1" d="M2954.64,0a18.78,18.78,0,0,1,2.09,1.88,4.26,4.26,0,0,1-2,6.92,8.93,8.93,0,0,1-2.36.36c-1.44.06-2.88,0-4.32,0H12.08c-1.91,0-3.83,0-5.75-.08A5.08,5.08,0,0,1,1.87,6.74C.79,4.49.45,2.24,1.92,0Z"/><path class="cls-1" d="M8.55,326.93c-1.59-.5-2.1-1.84-2.45-3.26A3.68,3.68,0,0,1,6.78,321,3.3,3.3,0,0,1,9.4,319.1c.95-.09,1.91-.18,2.87-.2,1.76,0,3.52,0,5.28,0H2949.66c2.56,0,5.12.06,7.68.08a5.92,5.92,0,0,1,4,1.2v6.71c-1.66.88-3.46.44-5.19.44q-1471.2,0-2942.41,0C12,327.33,10.23,327.72,8.55,326.93Z"/><path class="cls-1" d="M8.55,326.93c2.24,0,4.48-.05,6.71-.05h2946.1v1H8.64A1.77,1.77,0,0,0,8.55,326.93Z"/><path class="cls-1" d="M1.92,0c-.61,2.24-.25,4.49,0,6.74L0,5.75V1.44C0,0,0,0,1.92,0Z"/><path class="cls-1" d="M1311.13,164.31V67c0-6.47-.5-6.66,6.52-6.61,7.52,0,15,.13,22.56,0a8,8,0,0,1,7,3.24c10.35,12.38,20.81,24.68,31.25,37q60.93,71.85,121.89,143.7c1,1.22,2.12,2.38,3.24,3.52.15.15.58.06.88,0s.52-.29.53-.68c0-1.76.1-3.51.1-5.27V71.75c0-1.76-.06-3.52.08-5.27a6.14,6.14,0,0,1,12-1.52,11.5,11.5,0,0,1,.5,2.81c.09,1.27,0,2.55,0,3.83q0,92.75,0,185.48a50,50,0,0,1-.22,5.74c-.24,2.06-1,2.75-3.2,2.78-5,.07-9.92,0-14.88,0-4.47,0-9,0-13.43,0a5,5,0,0,1-4.19-1.89c-.6-.75-1.25-1.45-1.87-2.18L1368,129.53q-19.38-22.86-38.76-45.71c-1.24-1.46-2.57-2.83-3.9-4.21-.39-.41-1.41,0-1.44.64-.07,1.11-.12,2.23-.12,3.34v178.3a32.42,32.42,0,0,1-.11,4.3,6.25,6.25,0,0,1-12.47-.27c-.13-1.43-.07-2.88-.07-4.31Z"/><path class="cls-1" d="M346.71,165.92q0,48.17,0,96.31c0,1.76,0,3.52-.09,5.27-.14,2.16-1.08,3.11-3.26,3.41a19.77,19.77,0,0,1-2.88.12H318.4c-.48,0-1,0-1.44,0-3.36-.21-4.25-1-4.46-4.31-.09-1.43-.05-2.87-.05-4.31V177.6c0-1.44,0-2.88-.09-4.31a2.27,2.27,0,0,0-2.38-2.45c-1.12-.09-2.24-.05-3.36-.05q-69.81,0-139.63,0c-1.91,0-3.84.09-5.74.27a1.84,1.84,0,0,0-1.8,1.88c0,1.44-.06,2.87-.06,4.31q0,42.41,0,84.81a42.44,42.44,0,0,1-.12,4.79,5,5,0,0,1-4.91,4.34,4.65,4.65,0,0,1-4.79-4.38c-.17-1.74-.18-3.51-.18-5.26q0-95.35,0-190.71a54.86,54.86,0,0,1,.22-5.74c.29-2.58,1.91-3.89,4.55-3.93,2.9,0,4.8,1.34,5.1,3.94a46.25,46.25,0,0,1,.13,5.27q0,41.93,0,83.85c0,1.44,0,2.87.05,4.31a1.8,1.8,0,0,0,1.8,1.85,26.57,26.57,0,0,0,3.34.12H304.69c1.76,0,3.52.08,5.27,0s2.3-.73,2.41-2.36c.1-1.43.08-2.87.08-4.31q0-41.93,0-83.85c0-2.23.06-4.47.25-6.7a2.76,2.76,0,0,1,2.78-2.75,21.2,21.2,0,0,1,2.87-.12q11.28,0,22.56,0a21.2,21.2,0,0,1,2.39.07c2.18.26,3.15,1.2,3.3,3.37.12,1.75.09,3.51.09,5.27Q346.72,117.52,346.71,165.92Z"/><path class="cls-1" d="M1756.43,165.52V68.72c0-1.59,0-3.2.09-4.79.15-2.08.79-2.78,2.92-3.11a24.27,24.27,0,0,1,3.82-.22h147.8a23.67,23.67,0,0,1,4.3.28c2.75.52,3.79,2.12,3.66,5.26-.1,2.59-1.45,4.29-3.94,4.61a36.36,36.36,0,0,1-4.79.13H1797c-1.44,0-2.88,0-4.32,0a1.8,1.8,0,0,0-1.93,1.72,28.52,28.52,0,0,0-.16,3.34q0,39,0,78.11c0,7.18-.11,6.41,6.62,6.42q30.72,0,61.43,0a34.12,34.12,0,0,1,5.25.33,3.31,3.31,0,0,1,2.94,3.28,15.23,15.23,0,0,1,0,1.91c-.09,3.25-1.07,4.38-4.19,4.63-1.6.13-3.2.09-4.8.09h-60.47c-1.59,0-3.19,0-4.79.11a1.82,1.82,0,0,0-1.85,1.81c-.12,1.27-.18,2.55-.18,3.82q0,39.06,0,78.12c0,6.57.35,6,6.19,6h112.77c1.76,0,3.53-.05,5.28.09,2.6.22,4,1.75,4.15,4.37a8.54,8.54,0,0,1,0,1.43c-.19,2.26-1.27,3.56-3.49,3.88a33.16,33.16,0,0,1-4.78.28H1782.59c-6.56,0-13.12,0-19.67,0-6.21,0-6.48-.22-6.48-6.42Q1756.43,214.89,1756.43,165.52Z"/><path class="cls-1" d="M2231.59,169.9q0,46,0,92c0,1.75,0,3.51-.13,5.26-.18,2-1,2.83-3,3.05a17.6,17.6,0,0,1-1.92.07h-24c-.48,0-1,0-1.44,0-2.18-.21-3.16-1.05-3.35-3.31s-.19-4.78-.19-7.17q0-90.06,0-180.11c0-2.08,0-4.16-.12-6.23s-.51-2.37-2.69-2.44c-2.39-.06-4.79,0-7.19,0H2129a23.25,23.25,0,0,1-3.83-.15c-2.52-.42-3.94-2.46-3.81-5.26.11-2.54,1.52-4.05,4.17-4.31,1.43-.13,2.87-.12,4.31-.12h168.37c1.76,0,3.52.16,5.27.12,2.54,0,4.12,2.46,4.18,4.39a4.75,4.75,0,0,1-3.52,5.06,20.46,20.46,0,0,1-4.29.27c-20.47,0-40.94,0-61.4,0-7.56,0-6.88-.8-6.89,7Q2231.57,123.92,2231.59,169.9Z"/><path class="cls-1" d="M1567.26,165.81c0,17.9.09,35.79-.08,53.68a11.33,11.33,0,0,0,3.37,8.52c14.52,15.3,32,25.19,52.81,29.08,40.52,7.58,81.18-11.46,100.83-47.08.39-.7.79-1.39,1.17-2.09a5.79,5.79,0,0,1,6-3,5.44,5.44,0,0,1,5.24,5.71,10,10,0,0,1-1.69,4.91,103.06,103.06,0,0,1-32,35.74,106.5,106.5,0,0,1-46.85,18.33c-52.27,7.31-97.67-22.7-114.89-65.93-6.38-16-8.31-32.6-6.6-49.8,3.78-38,32-77.86,79.06-90.11,42.31-11,88.6,4,115.47,42.22,1,1.43,1.85,3,2.74,4.49,1.44,2.45.13,5.68-2,7.2a5.47,5.47,0,0,1-7.07-.22,12.57,12.57,0,0,1-1.93-2.12c-1.07-1.39-2.08-2.83-3.11-4.25C1704.22,92.47,1686.19,80.53,1664,75a95.47,95.47,0,0,0-93.91,28.52,9.84,9.84,0,0,0-2.85,7.23C1567.33,129.07,1567.26,147.44,1567.26,165.81Z"/><path class="cls-1" d="M893.55,165.94c0,18.22.05,36.43,0,54.64a9.24,9.24,0,0,0,2.59,6.86c15.73,17.14,35,27.39,58.12,30.61a94.55,94.55,0,0,0,95.51-47.1,22.93,22.93,0,0,1,2.54-4,6,6,0,0,1,10.09,2.1,5.34,5.34,0,0,1-.22,4.2c-.65,1.28-1.28,2.58-2,3.82q-23,39.5-67.33,50.73A107.25,107.25,0,0,1,882,229.25a101.33,101.33,0,0,1-20.67-49.33c-5.83-44.33,15.48-83,50.41-104.17A104.17,104.17,0,0,1,951.62,61.6c41-5.73,80.64,11.53,103.84,45.3a28.82,28.82,0,0,1,2.08,3.21,6,6,0,0,1-9.86,6.6c-.94-1.08-1.72-2.3-2.55-3.47-15.68-22.1-36.85-35.68-63.69-39.56-33.41-4.83-61.77,5.48-85,29.94a10.15,10.15,0,0,0-2.94,7.69c.14,18.21.07,36.42.07,54.63Z"/><path class="cls-1" d="M590.31,165.3q0-48.39,0-96.77c0-1.6,0-3.2.09-4.79a3.25,3.25,0,0,1,3-3.19,21.28,21.28,0,0,1,2.88-.13l22.54,0a24,24,0,0,1,2.4.06c2.2.23,3.1,1.08,3.36,3.31a28.84,28.84,0,0,1,.1,3.35q0,97.74,0,195.46a48.51,48.51,0,0,1-.27,5.26c-.23,2-1,2.76-3,3a21.07,21.07,0,0,1-2.87.11q-10.8,0-21.59,0a22,22,0,0,1-3.35-.15,3.37,3.37,0,0,1-3.19-3.54c-.11-1.75-.07-3.51-.07-5.27q0-48.39,0-96.77Z"/><path class="cls-1" d="M2597.32,165.83v95.86a15.84,15.84,0,0,1-.35,4.75,5.09,5.09,0,0,1-4.42,3.84,23,23,0,0,1-2.88.11h-20.16c-.79,0-1.6-.1-2.39-.05a5.16,5.16,0,0,1-5.13-5.21c.07-1.27,0-2.56,0-3.83q0-88.92,0-177.82c0-1.59.05-3.19,0-4.79a5,5,0,0,1,2.51-4.35c.67-.44,1.37-.83,2.07-1.21l20.79-10.91c.71-.37,1.42-.73,2.16-1a5.38,5.38,0,0,1,7.62,4,23.63,23.63,0,0,1,.16,4.3q0,48.16,0,96.33Z"/><path class="cls-1" d="M2537.56,165.81v94.88c0,1.44.07,2.88,0,4.31-.29,3.51-2,5.17-5.5,5.31-3.19.13-6.39.08-9.59.08-4.64,0-9.28.07-13.92,0-4.32-.1-6-1.85-6.16-6.17-.07-2.24,0-4.47,0-6.71V84a17.32,17.32,0,0,0,0-2.39c-.58-4.21,1.18-6.87,5-8.75,6.88-3.38,13.6-7.09,20.38-10.65.85-.44,1.77-.76,2.59-1.25,2.61-1.54,6.72,1,7,3.76a37.59,37.59,0,0,1,.3,3.81q0,48.64,0,97.28Z"/><path class="cls-1" d="M840.18,267.79c-.75-1.41-1.6-2.76-2.45-4.12L788,184c-.85-1.35-1.68-2.72-2.46-4.11a1.34,1.34,0,0,1,.64-2c1.14-.58,2.33-1,3.51-1.52A70.1,70.1,0,0,0,816,157.74c8.32-9.59,13.25-20.74,14-33.42.73-13.25-3.41-25.18-11.39-35.75A65.8,65.8,0,0,0,798.5,71.05a81.13,81.13,0,0,0-40.82-10.61q-50.62-.07-101.26,0a23.35,23.35,0,0,0-3.35.17,2.56,2.56,0,0,0-2.45,2.52c-.22,2.7-.36,5.42-.37,8.13q0,47.21,0,94.42v95.85c0,1.76,0,3.52.11,5.27.25,3.29,1.14,4.07,4.51,4.25.31,0,.63,0,.95,0h23a17.52,17.52,0,0,0,1.92,0c2.69-.31,3.63-1.25,3.79-4,.11-1.75.09-3.51.09-5.27q0-35.7,0-71.41c0-8.71-.55-7.46,7.43-7.52,18.4-.14,36.8,0,55.2,0,1.12,0,2.24.1,3.35.05a3.62,3.62,0,0,1,3.46,2.08c1.57,2.59,3.28,5.1,4.89,7.67q7.88,12.6,15.71,25.21c10.31,16.53,20.66,33,30.88,49.62a6.81,6.81,0,0,0,6.61,3.68c7.84-.17,15.68,0,23.52-.06a18.21,18.21,0,0,0,2.86-.14C840.33,270.61,841,269.33,840.18,267.79Zm-67.66-93.31a72.39,72.39,0,0,1-14.3,1.35q-34.31.13-68.62.13c-4.62,0-4.88-.21-4.91-4.87-.07-11.66,0-23.32,0-35,0-5,0-9.9,0-14.85q0-24.2,0-48.4c0-5.54,0-5.56,5.61-5.56q32.87,0,65.74,0c10.32,0,20.38,1.4,30,5.46a69.81,69.81,0,0,1,18.25,11.31,8.78,8.78,0,0,1,3.42,7.42c-.16,12.46-.06,24.92-.06,37.37,0,7.83-.08,15.66,0,23.48a7.17,7.17,0,0,1-2.51,5.85C795.81,166.81,784.83,171.94,772.52,174.48Z"/><path class="cls-1" d="M2816.76,127.36c-15.11-38-50.67-64.47-94.75-66.95a104,104,0,0,0-33.2,3.82c-50.46,13.73-78.82,59.8-78,100.14-.21,23.12,6.34,43.53,19.38,61.67a106.6,106.6,0,0,0,100.46,43.62c17.63-2.26,33.78-8.16,48.24-18.45,27.17-19.32,42-45.82,45-78.85C2825.32,156.84,2822.49,141.78,2816.76,127.36Zm-26,92.86a9.94,9.94,0,0,1-2.82,7.26,91.83,91.83,0,0,1-53,29.46c-33.1,5.9-61.52-3.62-85.53-26.87-.46-.44-.85-1-1.34-1.37-3.17-2.68-4.11-6-4.07-10.19.19-17.88.08-35.76.08-53.65h0c0-18.2.05-36.4,0-54.6a8.76,8.76,0,0,1,2.55-6.4,95.07,95.07,0,0,1,52.43-29.72c32.7-6.74,66.9,5.22,88.54,28.78a11.13,11.13,0,0,1,3.27,8.09Q2790.58,165.61,2790.72,220.22Z"/><path class="cls-1" d="M1294.17,149.65a103.67,103.67,0,0,0-23.73-52,107.66,107.66,0,0,0-106.57-34.56c-53.88,12.77-86.38,63-81.31,112.27a102.36,102.36,0,0,0,12.67,40.33,107.17,107.17,0,0,0,117.68,52c45.74-10.5,82-51.06,82.4-102.57A139.34,139.34,0,0,0,1294.17,149.65Zm-34.4,76.91a102.28,102.28,0,0,1-9.94,9.7c-15.36,12.64-32.92,20.15-52.77,21.73-30.78,2.45-56.75-8-78.15-30.05-.66-.69-1.28-1.43-1.94-2.12a5.78,5.78,0,0,1-1.68-4.33c.06-1.91,0-3.83,0-5.74q0-25.4,0-50.79h0c0-18.2,0-36.41,0-54.61a9.34,9.34,0,0,1,2.68-6.85,96.61,96.61,0,0,1,53.43-29.84c29.93-6,64.28,4.15,86.87,28.41.66.7,1.29,1.42,1.94,2.13a6.78,6.78,0,0,1,2,5.2c0,.64,0,1.28,0,1.92V217.68a27.48,27.48,0,0,0,0,2.87C1262.37,223,1261.36,224.82,1259.77,226.56Z"/><path class="cls-1" d="M2096.37,111.88c-4.92-24.81-19.92-40.81-43.84-48.6-7.22-2.35-14.77-2.67-22.3-2.67q-40.31,0-80.63,0h-10.07a27.62,27.62,0,0,0-2.88.09c-3.27.34-3.86.93-4,4.12-.09,1.75-.06,3.51-.06,5.27q0,47.69,0,95.38v33.07q0,32.6,0,65.19a34.35,34.35,0,0,0,.32,4.75,2.12,2.12,0,0,0,1.92,1.86c.8.09,1.59.19,2.39.2h24.47a17.47,17.47,0,0,0,2.4-.14,2.78,2.78,0,0,0,2.69-2.84c.14-1.74.11-3.51.12-5.26q0-37.39,0-74.77c0-4.75,0-4.75,4.76-4.8h1.44c18.72,0,37.44-.05,56.16,0a95.2,95.2,0,0,0,15.26-1.25,66.3,66.3,0,0,0,24.09-8.95C2088.14,160.88,2101.13,135.88,2096.37,111.88Zm-21.78,47.34c-10,9.77-21.8,15.39-35.78,16.35-2.38.17-4.78.27-7.18.28q-28.77,0-57.53,0c-1.6,0-3.2,0-4.79-.16-1.86-.15-2.26-.55-2.35-2.3-.09-1.6-.08-3.19-.08-4.79V73.8c0-1.28,0-2.55,0-3.83.07-1.47.61-2.09,1.95-2.21,1.11-.11,2.24-.1,3.35-.1h62.33c15.63,0,28.92,5.65,40.09,16.53a9.72,9.72,0,0,1,3.17,7.59q-.16,29.93,0,59.85A9.81,9.81,0,0,1,2074.59,159.22Z"/><path class="cls-1" d="M576.56,268.47c-.83-2.07-1.71-4.13-2.69-6.13q-25.08-51.12-50.2-102.22-22.44-45.75-44.83-91.53c-.63-1.28-1.26-2.58-2-3.82a13.35,13.35,0,0,0-1.67-2.33,2.83,2.83,0,0,0-4.56.06c-1.81,2.07-2.82,4.62-4,7q-18.11,35.89-36.15,71.81-29.34,58.35-58.63,116.74c-1,2-1.85,4.05-2.75,6.1a5,5,0,0,0,.49,4.59,3.36,3.36,0,0,0,5.89.37,33.67,33.67,0,0,0,2.58-4.58q11.6-23.09,23.17-46.19c2.49-5,1.57-5,7.88-5h107c1,0,1.92,0,2.88,0,2.12-.08,3.69.63,4.46,2.78a28.79,28.79,0,0,0,1.5,3q6.83,14,13.65,28c3.22,6.59,6.54,13.14,9.61,19.8,1.37,3,3.15,4.55,6.61,4.2,2.69-.27,5.43,0,8.15,0,3.2,0,6.4,0,9.6,0a14.18,14.18,0,0,0,2.83-.31A1.69,1.69,0,0,0,576.56,268.47ZM515.05,203a41.1,41.1,0,0,1-4.3.15h-48v0H413.8c-4.53,0-4.76-.36-2.67-4.52q21.58-43,43.19-86,3.23-6.41,6.51-12.8c.58-1.14,1.21-2.25,1.86-3.34a.89.89,0,0,1,1.56,0c.79,1.38,1.59,2.76,2.29,4.19q9.3,18.9,18.56,37.82,14.46,29.43,28.94,58.86c.7,1.42,1.34,2.89,1.93,4.37A1,1,0,0,1,515.05,203Z"/></svg>